<svg xmlns="http://www.w3.org/2000/svg" width="104.41px" height="24px" viewBox="0 0 511.4 117.54"><g><path d="M106.37 96.41c-5.84,0 -10.57,-4.73 -10.57,-10.57l0 -11.8 0 -30.53 0 -11.73c0,-0.02 0,-0.05 0,-0.07 0,-0.03 0,-0.05 0,-0.08 0.04,-5.8 4.75,-10.49 10.57,-10.49 5.83,0 10.57,4.73 10.57,10.57l0 11.8 0 30.53 0 11.8c0,5.84 -4.73,10.57 -10.57,10.57zm0 -96.41c-3.7,0 -7.26,0.64 -10.57,1.8 -12.31,4.36 -21.13,16.1 -21.13,29.91l0 54.13c0,13.8 8.82,25.55 21.13,29.9 3.31,1.17 6.87,1.8 10.57,1.8 3.71,0 7.26,-0.63 10.57,-1.8 12.31,-4.35 21.14,-16.1 21.14,-29.9l0 -54.13c0,-13.81 -8.83,-25.55 -21.14,-29.91 -3.31,-1.16 -6.86,-1.8 -10.57,-1.8z"/><path d="M490.26 117.54l0 -96.4 21.14 0 0 -10.57c0,-5.84 -4.73,-10.57 -10.57,-10.57l-10.57 0 -21.13 0 -21.14 0 0 10.57c0,5.84 4.73,10.57 10.57,10.57l10.57 0 0 85.84c0,5.83 4.73,10.56 10.57,10.56l10.56 0z"/><path d="M309.23 0c-5.84,0 -10.57,4.73 -10.57,10.57l0 10.57 0 42.25 0 21.14 0 11.88 0 10.57c0,5.83 4.73,10.56 10.57,10.56l10.57 0 42.27 0 0 -10.56c0,-5.84 -4.73,-10.57 -10.57,-10.57l-31.7 0 0 -11.88 22.21 0 0 -10.57c0,-5.84 -4.73,-10.57 -10.56,-10.57l-11.65 0 0 -36.97c0,-2.92 2.36,-5.28 5.28,-5.28l36.99 0 0 -10.57c0,-5.84 -4.73,-10.57 -10.57,-10.57l-31.7 0 -10.57 0z"/><path d="M170.47 10.57c0,-5.84 -4.73,-10.57 -10.57,-10.57l-10.57 0 0 31.46 0 33.67 0 41.85c0,5.83 4.73,10.56 10.57,10.56l10.57 0 0 -26.2 17.75 22 0.42 0.53c1.94,2.25 4.81,3.67 8.01,3.67l16.09 0 0 -106.97c0,-5.84 -4.73,-10.57 -10.57,-10.57l-10.57 0 0 83.88 -21.13 -26.21 0 -47.1z"/><path d="M245.13 10.57c0,-5.84 -4.73,-10.57 -10.57,-10.57l-10.56 0 0 31.46 0 33.67 0 41.85c0,5.83 4.73,10.56 10.56,10.56l10.57 0 0 -26.2 17.75 22 0.43 0.53c1.93,2.25 4.8,3.67 8.01,3.67l16.09 0 0 -106.97c0,-5.84 -4.74,-10.57 -10.57,-10.57l-10.57 0 0 83.88 -21.14 -26.21 0 -47.1z"/><path d="M21.14 74.04l0 -30.53 0 -11.73c0,-0.02 0,-0.05 0,-0.07 0,-0.03 0,-0.05 0,-0.08 0.04,-5.8 4.74,-10.49 10.57,-10.49 5.82,0 10.57,4.73 10.57,10.57l21.13 0c0,-13.81 -8.82,-25.55 -21.13,-29.91 -3.31,-1.16 -6.87,-1.8 -10.57,-1.8 -3.71,0 -7.27,0.64 -10.57,1.8 -12.32,4.36 -21.14,16.1 -21.14,29.91l0 54.13c0,13.8 8.82,25.55 21.14,29.9 3.3,1.17 6.86,1.8 10.57,1.8 3.7,0 7.26,-0.63 10.57,-1.8 12.31,-4.35 21.13,-16.1 21.13,-29.9l-21.13 0c0,5.84 -4.74,10.57 -10.57,10.57 -5.84,0 -10.57,-4.73 -10.57,-10.57l0 -11.8z"/><path d="M21.14 74.04l0 -30.53 0 -11.73c0,-0.02 0,-0.05 0,-0.07 0,-0.03 0,-0.05 0,-0.08 0.04,-5.8 4.74,-10.49 10.57,-10.49 5.82,0 10.57,4.73 10.57,10.57l21.13 0c0,-13.81 -8.82,-25.55 -21.13,-29.91 -3.31,-1.16 -6.87,-1.8 -10.57,-1.8 -3.71,0 -7.27,0.64 -10.57,1.8 -12.32,4.36 -21.14,16.1 -21.14,29.91l0 54.13c0,13.8 8.82,25.55 21.14,29.9 3.3,1.17 6.86,1.8 10.57,1.8 3.7,0 7.26,-0.63 10.57,-1.8 12.31,-4.35 21.13,-16.1 21.13,-29.9l-21.13 0c0,5.84 -4.74,10.57 -10.57,10.57 -5.84,0 -10.57,-4.73 -10.57,-10.57l0 -11.8z"/><path d="M394.46 74.04l0 -30.53 0 -11.73c0,-0.02 0,-0.05 0,-0.07 0,-0.03 0,-0.05 0,-0.08 0.04,-5.8 4.75,-10.49 10.57,-10.49 5.82,0 10.57,4.73 10.57,10.57l21.14 0c0,-13.81 -8.83,-25.55 -21.14,-29.91 -3.31,-1.16 -6.86,-1.8 -10.57,-1.8 -3.71,0 -7.26,0.64 -10.57,1.8 -12.31,4.36 -21.14,16.1 -21.14,29.91l0 54.13c0,13.8 8.83,25.55 21.14,29.9 3.31,1.17 6.86,1.8 10.57,1.8 3.71,0 7.26,-0.63 10.57,-1.8 12.31,-4.35 21.14,-16.1 21.14,-29.9l-21.14 0c0,5.84 -4.73,10.57 -10.57,10.57 -5.84,0 -10.57,-4.73 -10.57,-10.57l0 -11.8z"/></g></svg>