<svg xmlns="http://www.w3.org/2000/svg" width="40px" height="35.22px" viewBox="0 0 2.01 1.77"><g><path d="M0.67 0.84l0.64 0c0.1,0 0.18,-0.09 0.18,-0.19 0,-0.1 -0.08,-0.18 -0.18,-0.18l-0.66 0c-0.36,0 -0.65,0.29 -0.65,0.65 0,0.36 0.29,0.65 0.65,0.65l0.66 0 0 0c0.1,0 0.18,-0.08 0.18,-0.18 0,-0.1 -0.08,-0.19 -0.18,-0.19l-0.64 0c-0.16,0 -0.29,-0.12 -0.29,-0.28 0,-0.16 0.13,-0.28 0.29,-0.28z"/><path d="M1.34 0.37l-0.64 0c-0.1,0 -0.19,-0.08 -0.19,-0.18 0,-0.11 0.09,-0.19 0.19,-0.19l0.65 0c0.36,0 0.66,0.29 0.66,0.65 0,0.36 -0.3,0.66 -0.66,0.66l-0.65 0 0 0c-0.1,0 -0.19,-0.08 -0.19,-0.19 0,-0.1 0.09,-0.18 0.19,-0.18l0.64 0c0.15,0 0.28,-0.13 0.28,-0.29 0,-0.15 -0.13,-0.28 -0.28,-0.28z"/></g></svg>